<svg width="96" height="96" viewBox="0 0 96 96" fill="none" xmlns="http://www.w3.org/2000/svg">
<path d="M59.9999 88V72C60.5564 66.9892 59.1196 61.9605 55.9999 58C67.9999 58 79.9999 50 79.9999 36C80.3199 31 78.9199 26.08 75.9999 22C77.1199 17.4 77.1199 12.6 75.9999 8C75.9999 8 71.9999 8 63.9999 14C53.4399 12 42.5599 12 31.9999 14C23.9999 8 19.9999 8 19.9999 8C18.7999 12.6 18.7999 17.4 19.9999 22C17.0874 26.0635 15.6738 31.0111 15.9999 36C15.9999 50 27.9999 58 39.9999 58C38.4399 59.96 37.2799 62.2 36.5999 64.6C35.9199 67 35.7199 69.52 35.9999 72V88" stroke="#F3F4F6" stroke-width="8" stroke-linecap="round" stroke-linejoin="round"/>
<path d="M36 72C17.96 80 16 64 8 64" stroke="#F3F4F6" stroke-width="8" stroke-linecap="round" stroke-linejoin="round"/>
</svg>
